<?xml version="1.0" encoding="utf-8"?>
<!-- Generator: Adobe Illustrator 30.2.1, SVG Export Plug-In . SVG Version: 9.03 Build 0)  -->
<svg version="1.0" id="Camada_1" xmlns="http://www.w3.org/2000/svg" xmlns:xlink="http://www.w3.org/1999/xlink" x="0px" y="0px"
	 viewBox="0 0 340 189" style="enable-background:new 0 0 340 189;" xml:space="preserve">
<style type="text/css">
	.st0{clip-path:url(#SVGID_00000097502161556342380880000002503816249769622201_);}
	.st1{clip-path:url(#SVGID_00000063615538387438312660000018055711803258028209_);}
	.st2{clip-path:url(#SVGID_00000041985805022711107860000014919675795481603513_);}
	.st3{fill:#B68D40;}
	.st4{clip-path:url(#SVGID_00000127767112320622150560000010925074919560790189_);}
	.st5{clip-path:url(#SVGID_00000051350404871213563770000018116204218311539624_);}
	.st6{clip-path:url(#SVGID_00000112632713084642295170000013500559693832647053_);}
	.st7{clip-path:url(#SVGID_00000085952954488972991580000005635963644025970360_);}
	.st8{filter:url(#Adobe_OpacityMaskFilter);}
	.st9{fill-opacity:0.65;}
	.st10{mask:url(#e09e4b55e7_00000178202615540927081760000017838796926113970858_);}
	.st11{clip-path:url(#SVGID_00000048497230948180351760000012572733147155155903_);}
	.st12{clip-path:url(#SVGID_00000018230747241738363950000001456651863060643211_);}
	.st13{fill:none;stroke:#B68D40;stroke-width:1.164;stroke-linecap:round;stroke-miterlimit:4.6561;}
	.st14{fill:none;stroke:#B68D40;stroke-width:0.75;stroke-miterlimit:10;}
</style>
<g>
	<g transform="matrix(1, 0, 0, 1, 67, 39)">
		<g>
			<defs>
				<rect id="SVGID_1_" x="-67" y="-35.93" width="340" height="182.86"/>
			</defs>
			<clipPath id="SVGID_00000168083673838410701740000012016884958344136859_">
				<use xlink:href="#SVGID_1_"  style="overflow:visible;"/>
			</clipPath>
			<g style="clip-path:url(#SVGID_00000168083673838410701740000012016884958344136859_);">
				<g transform="matrix(1, 0, 0, 1, 3, 54)">
					<g>
						<defs>
							<rect id="SVGID_00000183927284812419619230000007119738890521487768_" x="-61.43" y="64.36" width="322.86" height="20"/>
						</defs>
						<clipPath id="SVGID_00000077299896732271526020000013155008224713322127_">
							<use xlink:href="#SVGID_00000183927284812419619230000007119738890521487768_"  style="overflow:visible;"/>
						</clipPath>
						<g style="clip-path:url(#SVGID_00000077299896732271526020000013155008224713322127_);">
							<g>
								<defs>
									
										<rect id="SVGID_00000111173304596978648530000001408835232776465595_" x="-60.22" y="67.21" width="15.94" height="14.29"/>
								</defs>
								<clipPath id="SVGID_00000136405665603660795530000007471494987650377358_">
									<use xlink:href="#SVGID_00000111173304596978648530000001408835232776465595_"  style="overflow:visible;"/>
								</clipPath>
								<g style="clip-path:url(#SVGID_00000136405665603660795530000007471494987650377358_);">
									<g>
										<g transform="translate(0.978122, 5.113728)">
											<g>
												<path class="st3" d="M-54.03,64.75l-1.74,4.51h3.48L-54.03,64.75z M-51.8,70.46c0,0-0.02,0-0.04,0h-4.38l-0.98,2.54
													h0.58c0.18,0,0.32,0.07,0.45,0.18c0.11,0.12,0.18,0.27,0.18,0.45c0,0.16-0.07,0.28-0.18,0.4
													c-0.12,0.15-0.27,0.22-0.45,0.22h-2.9c-0.18,0-0.32-0.08-0.45-0.22c-0.11-0.12-0.18-0.25-0.18-0.4
													c0-0.18,0.07-0.32,0.18-0.45c0.12-0.11,0.27-0.18,0.45-0.18h0.94l3.84-10c0.06-0.18,0.15-0.29,0.27-0.36
													c0.15-0.09,0.29-0.13,0.45-0.13c0.11,0,0.22,0.02,0.31,0.04c0.09,0.03,0.16,0.09,0.22,0.18
													c0.09,0.07,0.15,0.16,0.18,0.27l3.84,10h0.98c0.15,0,0.28,0.07,0.4,0.18c0.15,0.12,0.22,0.27,0.22,0.45
													c0,0.16-0.08,0.28-0.22,0.4c-0.12,0.15-0.26,0.22-0.4,0.22h-2.95c-0.18,0-0.33-0.08-0.45-0.22
													c-0.12-0.12-0.18-0.25-0.18-0.4c0-0.18,0.06-0.32,0.18-0.45c0.11-0.11,0.27-0.18,0.45-0.18h0.62L-51.8,70.46z"/>
											</g>
										</g>
									</g>
								</g>
							</g>
							<g>
								<g transform="translate(4.897106, 5.113728)">
								</g>
							</g>
							<g>
								<g transform="translate(6.412734, 5.113728)">
									<g>
										<path class="st3" d="M-47.64,73.01V63.9h-0.94c-0.16,0-0.3-0.06-0.45-0.18c-0.12-0.11-0.18-0.27-0.18-0.45
											s0.06-0.32,0.18-0.45c0.15-0.11,0.29-0.18,0.45-0.18h4.33c0.41,0,0.8,0.04,1.16,0.13c0.38,0.07,0.74,0.17,1.07,0.31
											c0.36,0.12,0.68,0.29,0.98,0.49c0.29,0.21,0.56,0.47,0.8,0.76c0.54,0.54,0.92,1.16,1.16,1.88c0.27,0.69,0.4,1.43,0.4,2.23
											c0,1.64-0.52,3.02-1.56,4.15c-1.02,1.1-2.35,1.65-4.02,1.65h-4.33c-0.16,0-0.3-0.08-0.45-0.22
											c-0.12-0.12-0.18-0.25-0.18-0.4c0-0.18,0.06-0.32,0.18-0.45c0.15-0.11,0.29-0.18,0.45-0.18H-47.64z M-46.39,73.01h2.14
											c1.27,0,2.32-0.42,3.12-1.29c0.8-0.86,1.21-1.94,1.21-3.26c0-1.31-0.4-2.39-1.21-3.26c-0.42-0.45-0.88-0.77-1.38-0.98
											c-0.51-0.2-1.09-0.31-1.74-0.31h-2.14V73.01z"/>
									</g>
								</g>
							</g>
							<g>
								<g transform="translate(10.385849, 5.113728)">
								</g>
							</g>
							<g>
								<g transform="translate(11.901478, 5.113728)">
									<g>
										<path class="st3" d="M-36.33,62.65c0.18,0,0.32,0.07,0.45,0.18c0.11,0.12,0.18,0.27,0.18,0.45s-0.07,0.33-0.18,0.45
											c-0.12,0.12-0.27,0.18-0.45,0.18h-0.58l3.17,8.26l3.21-8.26h-0.62c-0.18,0-0.33-0.06-0.45-0.18
											c-0.12-0.11-0.18-0.27-0.18-0.45s0.06-0.32,0.18-0.45c0.11-0.11,0.27-0.18,0.45-0.18h2.95c0.15,0,0.28,0.07,0.4,0.18
											c0.15,0.12,0.22,0.27,0.22,0.45s-0.08,0.33-0.22,0.45c-0.12,0.12-0.26,0.18-0.4,0.18h-0.98l-3.84,10
											c-0.07,0.18-0.17,0.31-0.31,0.4c-0.12,0.06-0.26,0.09-0.4,0.09c-0.12,0-0.25-0.03-0.36-0.09c-0.18-0.09-0.3-0.22-0.36-0.4
											l-3.84-10h-0.94c-0.18,0-0.32-0.06-0.45-0.18c-0.11-0.11-0.18-0.27-0.18-0.45s0.07-0.32,0.18-0.45
											c0.12-0.11,0.27-0.18,0.45-0.18H-36.33z"/>
									</g>
								</g>
							</g>
							<g>
								<g transform="translate(15.820461, 5.113728)">
								</g>
							</g>
							<g>
								<g transform="translate(17.33609, 5.113728)">
									<g>
										<path class="st3" d="M-27.22,72.69c-1.02-1.13-1.52-2.54-1.52-4.24c0-1.72,0.5-3.14,1.52-4.24
											c0.5-0.56,1.09-0.98,1.79-1.25c0.68-0.29,1.44-0.45,2.28-0.45c1.66,0,3.01,0.57,4.06,1.7c1,1.1,1.52,2.52,1.52,4.24
											c0,1.7-0.51,3.11-1.52,4.24c-1.05,1.14-2.4,1.7-4.06,1.7C-24.84,74.39-26.19,73.83-27.22,72.69z M-26.29,65.06
											c-0.8,0.89-1.21,2.03-1.21,3.39c0,1.37,0.4,2.5,1.21,3.39c0.77,0.87,1.81,1.29,3.12,1.29c1.31,0,2.34-0.42,3.12-1.29
											c0.8-0.89,1.21-2.02,1.21-3.39c0-0.71-0.11-1.34-0.31-1.88c-0.21-0.56-0.51-1.07-0.89-1.52
											c-0.39-0.45-0.85-0.77-1.38-0.98c-0.51-0.23-1.09-0.36-1.74-0.36C-24.48,63.72-25.52,64.17-26.29,65.06z"/>
									</g>
								</g>
							</g>
							<g>
								<g transform="translate(21.590677, 5.113728)">
								</g>
							</g>
							<g>
								<g transform="translate(23.106305, 5.113728)">
									<g>
										<path class="st3" d="M-18.03,68.45c0-1.72,0.49-3.14,1.47-4.24c0.98-1.13,2.24-1.7,3.79-1.7c1.18,0,2.28,0.36,3.26,1.07
											v-0.31c0-0.18,0.06-0.32,0.18-0.45c0.11-0.11,0.25-0.18,0.4-0.18c0.18,0,0.32,0.07,0.45,0.18
											c0.11,0.12,0.18,0.27,0.18,0.45v2.95c0,0.16-0.07,0.3-0.18,0.45c-0.12,0.12-0.27,0.18-0.45,0.18
											c-0.16,0-0.29-0.06-0.4-0.18c-0.12-0.15-0.18-0.29-0.18-0.45v-0.94c-0.25-0.27-0.52-0.5-0.85-0.71
											c-0.39-0.29-0.79-0.5-1.21-0.62c-0.39-0.15-0.79-0.22-1.21-0.22c-0.57,0-1.09,0.12-1.56,0.36
											c-0.48,0.21-0.92,0.54-1.29,0.98c-0.39,0.45-0.69,0.96-0.89,1.52c-0.18,0.57-0.27,1.19-0.27,1.88
											c0,1.37,0.4,2.5,1.21,3.39c0.77,0.87,1.81,1.29,3.12,1.29c0.65,0,1.26-0.1,1.83-0.31c0.54-0.2,1-0.51,1.43-0.94
											c0.11-0.11,0.27-0.18,0.45-0.18s0.31,0.04,0.4,0.13h0.04v0.04c0.06,0.07,0.1,0.16,0.13,0.27c0.02,0.09,0.02,0.2,0,0.31
											c-0.03,0.09-0.08,0.18-0.13,0.27c-0.54,0.54-1.15,0.94-1.83,1.21c-0.66,0.29-1.43,0.45-2.32,0.45
											c-1.67,0-3.02-0.56-4.06-1.7C-17.52,71.57-18.03,70.15-18.03,68.45z"/>
									</g>
								</g>
							</g>
							<g>
								<g transform="translate(26.868316, 5.113728)">
								</g>
							</g>
							<g>
								<g transform="translate(28.383945, 5.113728)">
									<g>
										<path class="st3" d="M-3.14,64.75l-1.74,4.51h3.48L-3.14,64.75z M-0.9,70.46c0,0-0.02,0-0.04,0h-4.38l-0.98,2.54h0.58
											c0.18,0,0.32,0.07,0.45,0.18c0.11,0.12,0.18,0.27,0.18,0.45c0,0.16-0.07,0.28-0.18,0.4c-0.12,0.15-0.27,0.22-0.45,0.22
											h-2.9c-0.18,0-0.32-0.08-0.45-0.22c-0.11-0.12-0.18-0.25-0.18-0.4c0-0.18,0.07-0.32,0.18-0.45
											c0.12-0.11,0.27-0.18,0.45-0.18h0.94l3.84-10c0.06-0.18,0.15-0.29,0.27-0.36c0.15-0.09,0.29-0.13,0.45-0.13
											c0.11,0,0.22,0.02,0.31,0.04c0.09,0.03,0.16,0.09,0.22,0.18c0.09,0.07,0.15,0.16,0.18,0.27l3.84,10H2.4
											c0.15,0,0.28,0.07,0.4,0.18c0.15,0.12,0.22,0.27,0.22,0.45c0,0.16-0.08,0.28-0.22,0.4c-0.12,0.15-0.26,0.22-0.4,0.22
											h-2.95c-0.18,0-0.33-0.08-0.45-0.22c-0.12-0.12-0.18-0.25-0.18-0.4c0-0.18,0.06-0.32,0.18-0.45
											c0.11-0.11,0.27-0.18,0.45-0.18h0.63L-0.9,70.46z"/>
									</g>
								</g>
							</g>
							<g>
								<g transform="translate(32.302928, 5.113728)">
								</g>
							</g>
							<g>
								<g transform="translate(33.818557, 5.113728)">
									<g>
										<path class="st3" d="M1.87,68.45c0-1.72,0.49-3.14,1.47-4.24c0.98-1.13,2.24-1.7,3.79-1.7c1.18,0,2.28,0.36,3.26,1.07
											v-0.31c0-0.18,0.06-0.32,0.18-0.45c0.11-0.11,0.25-0.18,0.4-0.18c0.18,0,0.32,0.07,0.45,0.18
											c0.11,0.12,0.18,0.27,0.18,0.45v2.95c0,0.16-0.07,0.3-0.18,0.45c-0.12,0.12-0.27,0.18-0.45,0.18
											c-0.16,0-0.29-0.06-0.4-0.18c-0.12-0.15-0.18-0.29-0.18-0.45v-0.94c-0.25-0.27-0.52-0.5-0.85-0.71
											c-0.39-0.29-0.79-0.5-1.21-0.62c-0.39-0.15-0.79-0.22-1.21-0.22c-0.57,0-1.09,0.12-1.56,0.36
											c-0.48,0.21-0.92,0.54-1.29,0.98c-0.39,0.45-0.69,0.96-0.89,1.52c-0.18,0.57-0.27,1.19-0.27,1.88
											c0,1.37,0.4,2.5,1.21,3.39c0.77,0.87,1.81,1.29,3.12,1.29c0.65,0,1.26-0.1,1.83-0.31c0.54-0.2,1-0.51,1.43-0.94
											c0.11-0.11,0.27-0.18,0.45-0.18c0.18,0,0.31,0.04,0.4,0.13h0.04v0.04c0.06,0.07,0.1,0.16,0.13,0.27
											c0.02,0.09,0.02,0.2,0,0.31c-0.03,0.09-0.08,0.18-0.13,0.27c-0.54,0.54-1.15,0.94-1.83,1.21
											c-0.66,0.29-1.43,0.45-2.32,0.45c-1.67,0-3.02-0.56-4.06-1.7C2.37,71.57,1.87,70.15,1.87,68.45z"/>
									</g>
								</g>
							</g>
							<g>
								<g transform="translate(37.580568, 5.113728)">
								</g>
							</g>
							<g>
								<g transform="translate(39.096196, 5.113728)">
									<g>
										<path class="st3" d="M13.05,73.01V63.9h-0.94c-0.16,0-0.3-0.06-0.45-0.18c-0.12-0.11-0.18-0.27-0.18-0.45
											s0.06-0.32,0.18-0.45c0.15-0.11,0.29-0.18,0.45-0.18h3.08c0.18,0,0.32,0.07,0.45,0.18c0.11,0.12,0.18,0.27,0.18,0.45
											s-0.07,0.33-0.18,0.45c-0.12,0.12-0.27,0.18-0.45,0.18H14.3v9.11h0.89c0.18,0,0.32,0.07,0.45,0.18
											c0.11,0.12,0.18,0.27,0.18,0.45c0,0.16-0.07,0.28-0.18,0.4c-0.12,0.15-0.27,0.22-0.45,0.22h-3.08
											c-0.16,0-0.3-0.08-0.45-0.22c-0.12-0.12-0.18-0.25-0.18-0.4c0-0.18,0.06-0.32,0.18-0.45c0.15-0.11,0.29-0.18,0.45-0.18
											H13.05z"/>
									</g>
								</g>
							</g>
							<g>
								<g transform="translate(40.839171, 5.113728)">
								</g>
							</g>
							<g>
								<g transform="translate(42.354799, 5.113728)">
									<g>
										<path class="st3" d="M22.81,64.75l-1.74,4.51h3.48L22.81,64.75z M25.04,70.46c0,0-0.02,0-0.04,0h-4.38l-0.98,2.54h0.58
											c0.18,0,0.32,0.07,0.45,0.18c0.11,0.12,0.18,0.27,0.18,0.45c0,0.16-0.07,0.28-0.18,0.4c-0.12,0.15-0.27,0.22-0.45,0.22
											h-2.9c-0.18,0-0.32-0.08-0.45-0.22c-0.11-0.12-0.18-0.25-0.18-0.4c0-0.18,0.07-0.32,0.18-0.45
											c0.12-0.11,0.27-0.18,0.45-0.18h0.94l3.84-10c0.06-0.18,0.15-0.29,0.27-0.36c0.15-0.09,0.29-0.13,0.45-0.13
											c0.11,0,0.22,0.02,0.31,0.04c0.09,0.03,0.16,0.09,0.22,0.18c0.09,0.07,0.15,0.16,0.18,0.27l3.84,10h0.98
											c0.15,0,0.28,0.07,0.4,0.18c0.15,0.12,0.22,0.27,0.22,0.45c0,0.16-0.08,0.28-0.22,0.4c-0.12,0.15-0.26,0.22-0.4,0.22H25.4
											c-0.18,0-0.33-0.08-0.45-0.22c-0.12-0.12-0.18-0.25-0.18-0.4c0-0.18,0.06-0.32,0.18-0.45c0.11-0.11,0.27-0.18,0.45-0.18
											h0.62L25.04,70.46z"/>
									</g>
								</g>
							</g>
							<g>
								<g transform="translate(46.274582, 5.113728)">
								</g>
							</g>
							<g>
								<g transform="translate(46.274582, 5.113728)">
								</g>
							</g>
							<g>
								<g transform="translate(47.790211, 5.113728)">
								</g>
							</g>
							<g>
								<g transform="translate(49.307884, 5.113728)">
									<g>
										<path class="st3" d="M32.02,73.01V63.9h-0.94c-0.16,0-0.3-0.06-0.45-0.18c-0.12-0.11-0.18-0.27-0.18-0.45
											s0.06-0.32,0.18-0.45c0.15-0.11,0.29-0.18,0.45-0.18h7.32c0.18,0,0.32,0.07,0.45,0.18c0.11,0.12,0.18,0.27,0.18,0.45v2.14
											c0,0.18-0.07,0.33-0.18,0.45c-0.12,0.12-0.27,0.18-0.45,0.18c-0.16,0-0.29-0.06-0.4-0.18c-0.12-0.11-0.18-0.27-0.18-0.45
											V63.9h-4.55v3.84h3.12v-0.62c0-0.15,0.06-0.28,0.18-0.4c0.15-0.11,0.29-0.18,0.45-0.18c0.18,0,0.32,0.07,0.45,0.18
											c0.11,0.12,0.18,0.26,0.18,0.4v2.5c0,0.16-0.07,0.3-0.18,0.45c-0.12,0.12-0.27,0.18-0.45,0.18c-0.16,0-0.3-0.06-0.45-0.18
											c-0.12-0.15-0.18-0.29-0.18-0.45v-0.62h-3.12v4.02h4.69v-1.56c0-0.15,0.06-0.28,0.18-0.4c0.11-0.11,0.25-0.18,0.4-0.18
											c0.18,0,0.32,0.07,0.45,0.18c0.15,0.12,0.22,0.26,0.22,0.4v2.19c0,0.16-0.08,0.28-0.22,0.4c-0.12,0.15-0.26,0.22-0.4,0.22
											h-7.5c-0.16,0-0.3-0.08-0.45-0.22c-0.12-0.12-0.18-0.25-0.18-0.4c0-0.18,0.06-0.32,0.18-0.45
											c0.15-0.11,0.29-0.18,0.45-0.18H32.02z"/>
									</g>
								</g>
							</g>
							<g>
								<g transform="translate(52.633093, 5.113728)">
								</g>
							</g>
							<g>
								<g transform="translate(52.633093, 5.113728)">
								</g>
							</g>
							<g>
								<g transform="translate(54.148722, 5.113728)">
								</g>
							</g>
							<g>
								<g transform="translate(55.666395, 5.113728)">
								</g>
							</g>
							<g>
								<g transform="translate(55.666395, 5.113728)">
									<g>
										<path class="st3" d="M42.44,68.45c0-1.72,0.49-3.14,1.47-4.24c0.98-1.13,2.24-1.7,3.79-1.7c1.18,0,2.28,0.36,3.26,1.07
											v-0.31c0-0.18,0.06-0.32,0.18-0.45c0.11-0.11,0.25-0.18,0.4-0.18c0.18,0,0.32,0.07,0.45,0.18
											c0.11,0.12,0.18,0.27,0.18,0.45v2.95c0,0.16-0.07,0.3-0.18,0.45c-0.12,0.12-0.27,0.18-0.45,0.18
											c-0.16,0-0.29-0.06-0.4-0.18c-0.12-0.15-0.18-0.29-0.18-0.45v-0.94c-0.25-0.27-0.52-0.5-0.85-0.71
											c-0.39-0.29-0.79-0.5-1.21-0.62c-0.39-0.15-0.79-0.22-1.21-0.22c-0.57,0-1.09,0.12-1.56,0.36
											c-0.48,0.21-0.92,0.54-1.29,0.98c-0.39,0.45-0.69,0.96-0.89,1.52c-0.18,0.57-0.27,1.19-0.27,1.88
											c0,1.37,0.4,2.5,1.21,3.39c0.77,0.87,1.81,1.29,3.12,1.29c0.65,0,1.26-0.1,1.83-0.31c0.54-0.2,1-0.51,1.43-0.94
											c0.11-0.11,0.27-0.18,0.45-0.18s0.31,0.04,0.4,0.13h0.04v0.04c0.06,0.07,0.1,0.16,0.13,0.27c0.02,0.09,0.02,0.2,0,0.31
											c-0.03,0.09-0.08,0.18-0.13,0.27c-0.54,0.54-1.15,0.94-1.83,1.21c-0.66,0.29-1.43,0.45-2.32,0.45
											c-1.67,0-3.02-0.56-4.06-1.7C42.95,71.57,42.44,70.15,42.44,68.45z"/>
									</g>
								</g>
							</g>
							<g>
								<g transform="translate(59.428407, 5.113728)">
								</g>
							</g>
							<g>
								<g transform="translate(60.944035, 5.113728)">
									<g>
										<path class="st3" d="M53.76,72.69c-1.02-1.13-1.52-2.54-1.52-4.24c0-1.72,0.5-3.14,1.52-4.24
											c0.5-0.56,1.09-0.98,1.79-1.25c0.68-0.29,1.44-0.45,2.28-0.45c1.66,0,3.01,0.57,4.06,1.7c1,1.1,1.52,2.52,1.52,4.24
											c0,1.7-0.51,3.11-1.52,4.24c-1.05,1.14-2.4,1.7-4.06,1.7C56.15,74.39,54.8,73.83,53.76,72.69z M54.7,65.06
											c-0.8,0.89-1.21,2.03-1.21,3.39c0,1.37,0.4,2.5,1.21,3.39c0.77,0.87,1.81,1.29,3.12,1.29c1.31,0,2.34-0.42,3.12-1.29
											c0.8-0.89,1.21-2.02,1.21-3.39c0-0.71-0.11-1.34-0.31-1.88c-0.21-0.56-0.51-1.07-0.89-1.52
											c-0.39-0.45-0.85-0.77-1.38-0.98c-0.51-0.23-1.09-0.36-1.74-0.36C56.51,63.72,55.47,64.17,54.7,65.06z"/>
									</g>
								</g>
							</g>
							<g>
								<g transform="translate(65.198622, 5.113728)">
								</g>
							</g>
							<g>
								<g transform="translate(66.71425, 5.113728)">
									<g>
										<path class="st3" d="M64.34,73.01V63.9h-0.94c-0.16,0-0.3-0.06-0.45-0.18c-0.12-0.11-0.18-0.27-0.18-0.45
											s0.06-0.32,0.18-0.45c0.15-0.11,0.29-0.18,0.45-0.18h1.7c0.29,0,0.54,0.13,0.71,0.4l3.26,4.96l2.5,3.88V63.9h-0.76
											c-0.16,0-0.3-0.06-0.45-0.18c-0.12-0.11-0.18-0.27-0.18-0.45s0.06-0.32,0.18-0.45c0.15-0.11,0.29-0.18,0.45-0.18h2.95
											c0.15,0,0.28,0.07,0.4,0.18c0.15,0.12,0.22,0.27,0.22,0.45s-0.08,0.33-0.22,0.45c-0.12,0.12-0.26,0.18-0.4,0.18h-0.94
											v9.11h0.94c0.15,0,0.28,0.07,0.4,0.18c0.15,0.12,0.22,0.27,0.22,0.45c0,0.16-0.08,0.28-0.22,0.4
											c-0.12,0.15-0.26,0.22-0.4,0.22h-1.7c-0.16,0-0.3-0.04-0.45-0.13c-0.12-0.09-0.21-0.2-0.27-0.31l-3.26-4.91l-2.5-3.88
											v7.99h0.76c0.15,0,0.28,0.07,0.4,0.18c0.15,0.12,0.22,0.27,0.22,0.45c0,0.16-0.08,0.28-0.22,0.4
											c-0.12,0.15-0.26,0.22-0.4,0.22h-2.95c-0.16,0-0.3-0.08-0.45-0.22c-0.12-0.12-0.18-0.25-0.18-0.4
											c0-0.18,0.06-0.32,0.18-0.45c0.15-0.11,0.29-0.18,0.45-0.18H64.34z"/>
									</g>
								</g>
							</g>
							<g>
								<g transform="translate(70.963427, 5.113728)">
								</g>
							</g>
							<g>
								<g transform="translate(72.479055, 5.113728)">
									<g>
										<path class="st3" d="M78.49,73.14c0.54,0,0.98-0.04,1.34-0.13c0.38-0.11,0.69-0.28,0.94-0.49
											c0.11-0.09,0.22-0.18,0.31-0.27c0.09-0.11,0.15-0.23,0.18-0.36c0.11-0.23,0.18-0.5,0.18-0.8c0-0.32-0.09-0.59-0.27-0.8
											c-0.21-0.27-0.49-0.47-0.85-0.62c-0.12-0.02-0.25-0.07-0.36-0.13c-0.09-0.06-0.21-0.1-0.36-0.13
											c-0.12-0.02-0.25-0.06-0.36-0.09c-0.42-0.15-0.85-0.27-1.29-0.36c-0.42-0.15-0.84-0.28-1.25-0.4
											c-0.45-0.15-0.85-0.31-1.21-0.49c-0.51-0.2-0.89-0.51-1.16-0.94c-0.3-0.38-0.45-0.89-0.45-1.52c0-0.09,0-0.16,0-0.22
											c0-0.09,0-0.16,0-0.22c0.02-0.09,0.04-0.16,0.04-0.22c0.02-0.09,0.04-0.16,0.04-0.22c0.02-0.09,0.06-0.18,0.09-0.27
											c0.02-0.06,0.06-0.11,0.09-0.18c0.06-0.09,0.1-0.16,0.13-0.22c0.06-0.09,0.1-0.16,0.13-0.22
											c0.06-0.06,0.11-0.11,0.18-0.18c0.06-0.06,0.11-0.11,0.18-0.18c0.06-0.09,0.11-0.15,0.18-0.18
											c0.09-0.06,0.16-0.11,0.22-0.18c0.09-0.06,0.18-0.1,0.27-0.13c0.09-0.02,0.18-0.06,0.27-0.09
											c0.11-0.06,0.22-0.1,0.31-0.13c0.23-0.09,0.5-0.15,0.8-0.18c0.29-0.02,0.62-0.04,0.98-0.04c0.15,0,0.28,0,0.4,0
											c0.15,0,0.28,0.02,0.4,0.04c0.15,0.03,0.28,0.07,0.4,0.09c0.38,0.09,0.73,0.21,1.03,0.36c0.32,0.16,0.6,0.31,0.85,0.49
											c0,0,0,0.02,0,0.04c0.02,0,0.04,0.02,0.04,0.04c0.02,0,0.04,0,0.04,0c0.02,0,0.04,0,0.04,0v-0.31
											c0-0.18,0.06-0.32,0.18-0.45c0.15-0.11,0.29-0.18,0.45-0.18c0.18,0,0.32,0.07,0.45,0.18c0.11,0.12,0.18,0.27,0.18,0.45
											v2.95c0,0.16-0.07,0.3-0.18,0.45c-0.12,0.12-0.27,0.18-0.45,0.18c-0.16,0-0.3-0.06-0.45-0.18
											c-0.12-0.15-0.18-0.29-0.18-0.45v-0.94c-0.12-0.15-0.26-0.27-0.4-0.36c-0.12-0.11-0.26-0.23-0.4-0.36
											c-0.3-0.2-0.66-0.4-1.07-0.58c-0.39-0.18-0.84-0.27-1.34-0.27c-0.27,0-0.52,0.02-0.76,0.04c-0.21,0.03-0.4,0.08-0.58,0.13
											c-0.16,0.07-0.3,0.13-0.45,0.22c-0.12,0.07-0.25,0.13-0.36,0.22c-0.09,0.09-0.18,0.18-0.27,0.27
											c-0.07,0.09-0.12,0.2-0.18,0.31c-0.09,0.21-0.13,0.44-0.13,0.67c0,0.3,0.1,0.57,0.31,0.8c0.2,0.27,0.47,0.47,0.8,0.58
											c0.18,0.09,0.36,0.17,0.54,0.22c0.18,0.07,0.36,0.12,0.54,0.18c0.45,0.12,0.87,0.25,1.29,0.36
											c0.45,0.12,0.87,0.26,1.29,0.4c0.41,0.12,0.81,0.27,1.21,0.45c0.15,0.09,0.29,0.18,0.45,0.27c0.15,0.09,0.28,0.2,0.4,0.31
											c0.11,0.12,0.22,0.25,0.31,0.36c0.29,0.42,0.45,0.94,0.45,1.56c0,0.16-0.02,0.3-0.04,0.45c-0.03,0.16-0.07,0.3-0.09,0.45
											c-0.03,0.16-0.08,0.29-0.13,0.4c-0.21,0.45-0.49,0.83-0.85,1.12c-0.36,0.27-0.8,0.49-1.34,0.67
											c-0.09,0.02-0.2,0.06-0.31,0.09c-0.09,0.02-0.2,0.04-0.31,0.04c-0.12,0.02-0.25,0.04-0.36,0.04
											c-0.12,0.02-0.25,0.04-0.36,0.04c-0.12,0-0.26,0-0.4,0c-0.48,0-0.92-0.04-1.29-0.13c-0.42-0.09-0.79-0.22-1.12-0.4
											c-0.16-0.06-0.3-0.11-0.45-0.18c-0.12-0.09-0.25-0.18-0.36-0.27c-0.03-0.02-0.07-0.04-0.09-0.04
											c-0.03-0.02-0.07-0.06-0.09-0.09v0.36c0,0.16-0.07,0.28-0.18,0.4c-0.12,0.15-0.27,0.22-0.45,0.22
											c-0.16,0-0.29-0.08-0.4-0.22c-0.12-0.12-0.18-0.25-0.18-0.4v-2.95c0-0.15,0.06-0.28,0.18-0.4
											c0.11-0.15,0.25-0.22,0.4-0.22c0.18,0,0.32,0.08,0.45,0.22c0.11,0.12,0.18,0.26,0.18,0.4v1.03
											c0.23,0.25,0.51,0.47,0.85,0.67c0.11,0.09,0.27,0.18,0.45,0.27c0.2,0.09,0.41,0.18,0.62,0.27
											C77.43,73.07,77.92,73.14,78.49,73.14z"/>
									</g>
								</g>
							</g>
							<g>
								<g transform="translate(75.970415, 5.113728)">
								</g>
							</g>
							<g>
								<g transform="translate(77.486043, 5.113728)">
									<g>
										<path class="st3" d="M86.09,62.65c0.15,0,0.28,0.07,0.4,0.18c0.11,0.12,0.18,0.27,0.18,0.45s-0.07,0.33-0.18,0.45
											c-0.12,0.12-0.26,0.18-0.4,0.18h-0.8v6.12c0,0.96,0.29,1.72,0.89,2.28c0.59,0.57,1.35,0.85,2.28,0.85
											c0.92,0,1.67-0.28,2.28-0.85c0.59-0.56,0.89-1.32,0.89-2.28V63.9h-0.76c-0.18,0-0.33-0.06-0.45-0.18
											c-0.12-0.11-0.18-0.27-0.18-0.45s0.06-0.32,0.18-0.45c0.11-0.11,0.27-0.18,0.45-0.18h2.95c0.15,0,0.28,0.07,0.4,0.18
											c0.11,0.12,0.18,0.27,0.18,0.45s-0.07,0.33-0.18,0.45c-0.12,0.12-0.26,0.18-0.4,0.18h-0.94v6.12
											c0,0.62-0.11,1.21-0.31,1.74c-0.21,0.54-0.52,1.02-0.94,1.43c-0.87,0.8-1.92,1.21-3.17,1.21c-1.28,0-2.34-0.4-3.17-1.21
											c-0.8-0.83-1.21-1.89-1.21-3.17V63.9h-0.94c-0.18,0-0.33-0.06-0.45-0.18c-0.12-0.11-0.18-0.27-0.18-0.45
											s0.06-0.32,0.18-0.45c0.11-0.11,0.27-0.18,0.45-0.18H86.09z"/>
									</g>
								</g>
							</g>
							<g>
								<g transform="translate(81.686505, 5.113728)">
								</g>
							</g>
							<g>
								<g transform="translate(83.202133, 5.113728)">
									<g>
										<path class="st3" d="M94.96,73.01V63.9h-0.94c-0.16,0-0.3-0.06-0.45-0.18c-0.12-0.11-0.18-0.27-0.18-0.45
											s0.06-0.32,0.18-0.45c0.15-0.11,0.29-0.18,0.45-0.18h3.39c0.18,0,0.32,0.07,0.45,0.18c0.11,0.12,0.18,0.27,0.18,0.45
											s-0.07,0.33-0.18,0.45c-0.12,0.12-0.27,0.18-0.45,0.18h-1.21v9.11h4.6v-1.56c0-0.15,0.06-0.28,0.18-0.4
											c0.15-0.11,0.29-0.18,0.45-0.18c0.18,0,0.32,0.07,0.45,0.18c0.11,0.12,0.18,0.26,0.18,0.4v2.19c0,0.16-0.07,0.28-0.18,0.4
											c-0.12,0.15-0.27,0.22-0.45,0.22h-7.41c-0.16,0-0.3-0.08-0.45-0.22c-0.12-0.12-0.18-0.25-0.18-0.4
											c0-0.18,0.06-0.32,0.18-0.45c0.15-0.11,0.29-0.18,0.45-0.18H94.96z"/>
									</g>
								</g>
							</g>
							<g>
								<g transform="translate(86.330827, 5.113728)">
								</g>
							</g>
							<g>
								<g transform="translate(87.846455, 5.113728)">
									<g>
										<path class="st3" d="M101.71,63.27c0-0.18,0.06-0.32,0.18-0.45c0.15-0.11,0.29-0.18,0.45-0.18h8.35
											c0.18,0,0.32,0.07,0.45,0.18c0.11,0.12,0.18,0.27,0.18,0.45v2.23c0,0.18-0.07,0.33-0.18,0.45
											c-0.12,0.12-0.27,0.18-0.45,0.18s-0.33-0.06-0.45-0.18c-0.12-0.11-0.18-0.27-0.18-0.45V63.9h-2.95v9.11h0.94
											c0.18,0,0.32,0.07,0.45,0.18c0.11,0.12,0.18,0.27,0.18,0.45c0,0.16-0.07,0.28-0.18,0.4c-0.12,0.15-0.27,0.22-0.45,0.22
											h-3.08c-0.18,0-0.33-0.08-0.45-0.22c-0.12-0.12-0.18-0.25-0.18-0.4c0-0.18,0.06-0.32,0.18-0.45
											c0.11-0.11,0.27-0.18,0.45-0.18h0.94V63.9h-2.95v1.61c0,0.18-0.07,0.33-0.18,0.45c-0.12,0.12-0.27,0.18-0.45,0.18
											c-0.16,0-0.3-0.06-0.45-0.18c-0.12-0.11-0.18-0.27-0.18-0.45V63.27z"/>
									</g>
								</g>
							</g>
							<g>
								<g transform="translate(91.191669, 5.113728)">
								</g>
							</g>
							<g>
								<g transform="translate(92.707297, 5.113728)">
									<g>
										<path class="st3" d="M112.75,72.69c-1.02-1.13-1.52-2.54-1.52-4.24c0-1.72,0.5-3.14,1.52-4.24
											c0.5-0.56,1.09-0.98,1.79-1.25c0.68-0.29,1.44-0.45,2.28-0.45c1.66,0,3.01,0.57,4.06,1.7c1,1.1,1.52,2.52,1.52,4.24
											c0,1.7-0.51,3.11-1.52,4.24c-1.05,1.14-2.4,1.7-4.06,1.7C115.14,74.39,113.79,73.83,112.75,72.69z M113.69,65.06
											c-0.8,0.89-1.21,2.03-1.21,3.39c0,1.37,0.4,2.5,1.21,3.39c0.77,0.87,1.81,1.29,3.13,1.29c1.31,0,2.34-0.42,3.12-1.29
											c0.8-0.89,1.21-2.02,1.21-3.39c0-0.71-0.11-1.34-0.31-1.88c-0.21-0.56-0.51-1.07-0.89-1.52
											c-0.39-0.45-0.85-0.77-1.38-0.98c-0.51-0.23-1.09-0.36-1.74-0.36C115.5,63.72,114.46,64.17,113.69,65.06z"/>
									</g>
								</g>
							</g>
							<g>
								<g transform="translate(96.961884, 5.113728)">
								</g>
							</g>
							<g>
								<g transform="translate(98.477512, 5.113728)">
									<g>
										<path class="st3" d="M127.57,68.05c0.74,0,1.31-0.18,1.7-0.54c0.18-0.18,0.31-0.38,0.4-0.62
											c0.09-0.27,0.13-0.56,0.13-0.89c0-0.68-0.18-1.21-0.54-1.56c-0.39-0.36-0.96-0.54-1.7-0.54h-2.99v4.15H127.57z
											 M124.58,73.01h0.76c0.15,0,0.28,0.07,0.4,0.18c0.15,0.12,0.22,0.27,0.22,0.45c0,0.16-0.08,0.28-0.22,0.4
											c-0.12,0.15-0.26,0.22-0.4,0.22h-2.95c-0.16,0-0.3-0.08-0.45-0.22c-0.12-0.12-0.18-0.25-0.18-0.4
											c0-0.18,0.06-0.32,0.18-0.45c0.15-0.11,0.29-0.18,0.45-0.18h0.94V63.9h-0.94c-0.16,0-0.3-0.06-0.45-0.18
											c-0.12-0.11-0.18-0.27-0.18-0.45s0.06-0.32,0.18-0.45c0.15-0.11,0.29-0.18,0.45-0.18h5.18c0.27,0,0.51,0.03,0.76,0.09
											c0.23,0.03,0.46,0.08,0.67,0.13c0.2,0.07,0.4,0.16,0.58,0.27c0.2,0.12,0.38,0.26,0.54,0.4c0.32,0.3,0.56,0.66,0.71,1.07
											c0.15,0.39,0.22,0.85,0.22,1.38c0,1.05-0.31,1.86-0.94,2.46c-0.54,0.51-1.27,0.79-2.19,0.85l2.63,3.62
											c0.06,0.07,0.1,0.09,0.13,0.09h0.98c0.15,0,0.28,0.07,0.4,0.18c0.15,0.12,0.22,0.27,0.22,0.45c0,0.16-0.08,0.28-0.22,0.4
											c-0.12,0.15-0.26,0.22-0.4,0.22h-3.08c-0.18,0-0.33-0.08-0.45-0.22c-0.12-0.12-0.18-0.25-0.18-0.4
											c0-0.18,0.06-0.32,0.18-0.45c0.11-0.11,0.27-0.18,0.45-0.18h0.49l-2.72-3.71h-1.79V73.01z"/>
									</g>
								</g>
							</g>
							<g>
								<g transform="translate(102.201635, 5.113728)">
								</g>
							</g>
							<g>
								<g transform="translate(103.717263, 5.113728)">
									<g>
										<path class="st3" d="M133.06,73.01V63.9h-0.94c-0.16,0-0.3-0.06-0.45-0.18c-0.12-0.11-0.18-0.27-0.18-0.45
											s0.06-0.32,0.18-0.45c0.15-0.11,0.29-0.18,0.45-0.18h3.08c0.18,0,0.32,0.07,0.45,0.18c0.11,0.12,0.18,0.27,0.18,0.45
											s-0.07,0.33-0.18,0.45c-0.12,0.12-0.27,0.18-0.45,0.18h-0.89v9.11h0.89c0.18,0,0.32,0.07,0.45,0.18
											c0.11,0.12,0.18,0.27,0.18,0.45c0,0.16-0.07,0.28-0.18,0.4c-0.12,0.15-0.27,0.22-0.45,0.22h-3.08
											c-0.16,0-0.3-0.08-0.45-0.22c-0.12-0.12-0.18-0.25-0.18-0.4c0-0.18,0.06-0.32,0.18-0.45c0.15-0.11,0.29-0.18,0.45-0.18
											H133.06z"/>
									</g>
								</g>
							</g>
							<g>
								<g transform="translate(105.460238, 5.113728)">
								</g>
							</g>
							<g>
								<g transform="translate(106.975866, 5.113728)">
									<g>
										<path class="st3" d="M142.82,64.75l-1.74,4.51h3.48L142.82,64.75z M145.05,70.46c0,0-0.02,0-0.04,0h-4.38l-0.98,2.54h0.58
											c0.18,0,0.32,0.07,0.45,0.18c0.11,0.12,0.18,0.27,0.18,0.45c0,0.16-0.07,0.28-0.18,0.4c-0.12,0.15-0.27,0.22-0.45,0.22
											h-2.9c-0.18,0-0.32-0.08-0.45-0.22c-0.11-0.12-0.18-0.25-0.18-0.4c0-0.18,0.07-0.32,0.18-0.45
											c0.12-0.11,0.27-0.18,0.45-0.18h0.94l3.84-10c0.06-0.18,0.15-0.29,0.27-0.36c0.15-0.09,0.29-0.13,0.45-0.13
											c0.11,0,0.22,0.02,0.31,0.04c0.09,0.03,0.16,0.09,0.22,0.18c0.09,0.07,0.15,0.16,0.18,0.27l3.84,10h0.98
											c0.15,0,0.28,0.07,0.4,0.18c0.15,0.12,0.22,0.27,0.22,0.45c0,0.16-0.08,0.28-0.22,0.4c-0.12,0.15-0.26,0.22-0.4,0.22
											h-2.95c-0.18,0-0.33-0.08-0.45-0.22c-0.12-0.12-0.18-0.25-0.18-0.4c0-0.18,0.06-0.32,0.18-0.45
											c0.11-0.11,0.27-0.18,0.45-0.18h0.62L145.05,70.46z"/>
									</g>
								</g>
							</g>
							<g>
								<g transform="translate(110.900409, 5.113728)">
								</g>
							</g>
						</g>
					</g>
				</g>
				<g>
					<defs>
						<rect id="SVGID_00000103223830950357702900000017977245547050840490_" x="-47" y="-35.1" width="291.43" height="179.34"/>
					</defs>
					<clipPath id="SVGID_00000176759472906106789510000005194292911735056315_">
						<use xlink:href="#SVGID_00000103223830950357702900000017977245547050840490_"  style="overflow:visible;"/>
					</clipPath>
					<g style="clip-path:url(#SVGID_00000176759472906106789510000005194292911735056315_);">
						<g transform="matrix(1, 0, 0, 1, 7, -0.000000000000007105)">
							<g>
								<defs>
									
										<rect id="SVGID_00000057108139467258507940000015688661699540928412_" x="-54" y="-35.93" width="291.43" height="182.86"/>
								</defs>
								<clipPath id="SVGID_00000067217353192907215670000005021461158539329415_">
									<use xlink:href="#SVGID_00000057108139467258507940000015688661699540928412_"  style="overflow:visible;"/>
								</clipPath>
								<g style="clip-path:url(#SVGID_00000067217353192907215670000005021461158539329415_);">
									<g>
										<g transform="translate(0.351274, 47.547785)">
											<g>
												<path class="st3" d="M39.11-57.71h11.56V52.37H39.69l-67.9-90.45v90.45h-11.74V-57.71h11.03l68.04,90.45V-57.71z"/>
											</g>
										</g>
									</g>
									<g>
										<g transform="translate(34.567344, 47.547785)">
											<g>
												<path class="st3" d="M77.92-3.38c5.74,1.94,10.45,5.21,14.11,9.82c3.66,4.59,5.49,10.25,5.49,16.96
													c0,5.62-1.34,10.65-4.02,15.04c-2.68,4.41-6.29,7.83-10.85,10.27c-4.53,2.44-9.6,3.66-15.22,3.66H23.59V-57.71h40
													c5.63,0,10.73,1.27,15.31,3.79c4.58,2.5,8.24,5.96,10.98,10.36c2.77,4.38,4.15,9.45,4.15,15.22
													c0,5.87-1.47,10.94-4.42,15.22C86.69-8.83,82.8-5.58,77.92-3.38z M82.29-27.45c0-5.38-1.96-9.82-5.89-13.3
													c-3.91-3.48-8.6-5.22-14.11-5.22H35.15v37.63h27.14c5.5,0,10.2-1.83,14.11-5.49C80.33-17.51,82.29-22.06,82.29-27.45z
													 M65.96,40.63c5.38,0,10.02-1.74,13.93-5.22c3.93-3.48,5.89-7.91,5.89-13.3c0-5.38-1.96-9.91-5.89-13.57
													C75.98,4.85,71.33,3,65.96,3h-30.8v37.63H65.96z"/>
											</g>
										</g>
									</g>
									<g>
										<defs>
											
												<rect id="SVGID_00000019653371708468666120000004776708855070301119_" x="128.86" y="-13.07" width="107.41" height="117.14"/>
										</defs>
										<clipPath id="SVGID_00000049927226643410045910000001546955971060350366_">
											<use xlink:href="#SVGID_00000019653371708468666120000004776708855070301119_"  style="overflow:visible;"/>
										</clipPath>
										<g style="clip-path:url(#SVGID_00000049927226643410045910000001546955971060350366_);">
											<g>
												<g transform="translate(61.269716, 47.547785)">
													<g>
														<path class="st3" d="M125.28,53.85c-7.83,0-15.13-1.46-21.92-4.38c-6.79-2.95-12.79-7.02-17.99-12.23
															c-5.18-5.2-9.24-11.21-12.19-17.99c-2.95-6.79-4.42-14.08-4.42-21.92c0-7.82,1.47-15.13,4.42-21.92
															c2.95-6.79,7.01-12.78,12.19-17.99c5.2-5.2,11.21-9.26,17.99-12.19c6.79-2.95,14.08-4.42,21.92-4.42
															c10.54,0,20.13,2.63,28.79,7.9c8.68,5.27,15.49,12.18,20.4,20.71l-10.09,5.71c-3.82-6.84-9.17-12.32-16.07-16.43
															c-6.91-4.11-14.59-6.16-23.04-6.16c-8.19,0-15.67,2-22.46,5.98c-6.79,3.96-12.21,9.35-16.25,16.16
															c-4.05,6.79-6.07,14.33-6.07,22.63s2.02,15.87,6.07,22.68c4.04,6.79,9.46,12.18,16.25,16.16
															c6.79,3.96,14.26,5.94,22.46,5.94c8.45,0,16.13-2.08,23.04-6.25c6.9-4.16,12.25-9.61,16.07-16.34l10.09,5.71
															c-4.91,8.55-11.72,15.45-20.4,20.71C145.41,51.21,135.81,53.85,125.28,53.85z"/>
													</g>
												</g>
											</g>
										</g>
									</g>
								</g>
							</g>
						</g>
					</g>
				</g>
				<g>
					<defs>
						<rect id="SVGID_00000180349528906573749160000000382443832187815040_" x="-66.13" y="109.79" width="337.47" height="5.71"/>
					</defs>
					<clipPath id="SVGID_00000150070976374189344780000009900411256621943474_">
						<use xlink:href="#SVGID_00000180349528906573749160000000382443832187815040_"  style="overflow:visible;"/>
					</clipPath>
					<g style="clip-path:url(#SVGID_00000150070976374189344780000009900411256621943474_);">
						<defs>
							<filter id="Adobe_OpacityMaskFilter" filterUnits="userSpaceOnUse" x="-67" y="109.79" width="340" height="5.71">
								<feColorMatrix  type="matrix" values="1 0 0 0 0  0 1 0 0 0  0 0 1 0 0  0 0 0 1 0"/>
							</filter>
						</defs>
						
							<mask maskUnits="userSpaceOnUse" x="-67" y="109.79" width="340" height="5.71" id="e09e4b55e7_00000178202615540927081760000017838796926113970858_">
							<g class="st8">
								<rect x="-715.06" y="-406.21" class="st9" width="1258.97" height="699.84"/>
							</g>
						</mask>
						<g class="st10">
							<g transform="matrix(1, 0, 0, 1, 0, 51)">
								<g>
									<defs>
										<rect id="SVGID_00000076576158709355744780000011249227433299522730_" x="-67" y="58.79" width="340" height="5.71"/>
									</defs>
									<clipPath id="SVGID_00000062186325890201458890000009638505836612689852_">
										<use xlink:href="#SVGID_00000076576158709355744780000011249227433299522730_"  style="overflow:visible;"/>
									</clipPath>
									<g style="clip-path:url(#SVGID_00000062186325890201458890000009638505836612689852_);">
										<g>
											<defs>
												
													<rect id="SVGID_00000033370118302263783840000013820984901368996510_" x="-66.13" y="59.02" width="336.27" height="3.42"/>
											</defs>
											<clipPath id="SVGID_00000067223191203540627470000008625940935966090116_">
												<use xlink:href="#SVGID_00000033370118302263783840000013820984901368996510_"  style="overflow:visible;"/>
											</clipPath>
											<g style="clip-path:url(#SVGID_00000067223191203540627470000008625940935966090116_);">
												<path class="st13" d="M-64.83,60.67h332.49"/>
											</g>
										</g>
									</g>
								</g>
							</g>
						</g>
					</g>
				</g>
			</g>
		</g>
	</g>
	<line class="st14" x1="6.6" y1="150.67" x2="331.43" y2="150.67"/>
</g>
</svg>
